<svg xmlns="http://www.w3.org/2000/svg" xmlns:xlink="http://www.w3.org/1999/xlink" width="1500" zoomAndPan="magnify" viewBox="0 0 1125 449.999984" height="600" preserveAspectRatio="xMidYMid meet" version="1.0"><defs><g/><clipPath id="5f6d5b3946"><path d="M 1046 0 L 1125 0 L 1125 52 L 1046 52 Z M 1046 0 " clip-rule="nonzero"/></clipPath><clipPath id="d36c50028d"><path d="M 1066.914062 -39.703125 L 1137.953125 -5.722656 L 1103.972656 65.320312 L 1032.929688 31.335938 Z M 1066.914062 -39.703125 " clip-rule="nonzero"/></clipPath><clipPath id="28c6793027"><path d="M 1062.382812 -30.234375 L 1133.421875 3.75 L 1103.972656 65.320312 L 1032.929688 31.335938 Z M 1062.382812 -30.234375 " clip-rule="nonzero"/></clipPath><clipPath id="9d146395dd"><path d="M 1066.929688 -39.734375 L 1137.96875 -5.75 L 1103.984375 65.289062 L 1032.945312 31.304688 Z M 1066.929688 -39.734375 " clip-rule="nonzero"/></clipPath><clipPath id="31540031ff"><path d="M 1061 0 L 1105 0 L 1105 38 L 1061 38 Z M 1061 0 " clip-rule="nonzero"/></clipPath><clipPath id="b766808da0"><path d="M 1066.914062 -39.703125 L 1137.953125 -5.722656 L 1103.972656 65.320312 L 1032.929688 31.335938 Z M 1066.914062 -39.703125 " clip-rule="nonzero"/></clipPath><clipPath id="441bded253"><path d="M 1062.382812 -30.234375 L 1133.421875 3.75 L 1103.972656 65.320312 L 1032.929688 31.335938 Z M 1062.382812 -30.234375 " clip-rule="nonzero"/></clipPath><clipPath id="a211e34a19"><path d="M 1066.929688 -39.734375 L 1137.96875 -5.75 L 1103.984375 65.289062 L 1032.945312 31.304688 Z M 1066.929688 -39.734375 " clip-rule="nonzero"/></clipPath><clipPath id="d7451bd4f3"><path d="M 629 318 L 708 318 L 708 397 L 629 397 Z M 629 318 " clip-rule="nonzero"/></clipPath><clipPath id="ee04cac983"><path d="M 615.964844 340.449219 L 686.054688 304.554688 L 721.953125 374.644531 L 651.859375 410.542969 Z M 615.964844 340.449219 " clip-rule="nonzero"/></clipPath><clipPath id="2216df7450"><path d="M 615.964844 340.449219 L 686.054688 304.554688 L 721.953125 374.644531 L 651.859375 410.542969 Z M 615.964844 340.449219 " clip-rule="nonzero"/></clipPath><clipPath id="507ba2ff9c"><path d="M 615.964844 340.449219 L 686.054688 304.554688 L 721.953125 374.644531 L 651.859375 410.542969 Z M 615.964844 340.449219 " clip-rule="nonzero"/></clipPath><clipPath id="027fed1d34"><path d="M 644 333 L 690 333 L 690 383 L 644 383 Z M 644 333 " clip-rule="nonzero"/></clipPath><clipPath id="8b7ac89573"><path d="M 615.964844 340.449219 L 686.054688 304.554688 L 721.953125 374.644531 L 651.859375 410.542969 Z M 615.964844 340.449219 " clip-rule="nonzero"/></clipPath><clipPath id="de9a3f7efe"><path d="M 615.964844 340.449219 L 686.054688 304.554688 L 721.953125 374.644531 L 651.859375 410.542969 Z M 615.964844 340.449219 " clip-rule="nonzero"/></clipPath><clipPath id="8e08946fac"><path d="M 615.964844 340.449219 L 686.054688 304.554688 L 721.953125 374.644531 L 651.859375 410.542969 Z M 615.964844 340.449219 " clip-rule="nonzero"/></clipPath><clipPath id="cf71d89a73"><path d="M 11.230469 45 L 89.980469 45 L 89.980469 123.75 L 11.230469 123.75 Z M 11.230469 45 " clip-rule="nonzero"/></clipPath><clipPath id="b7db81e539"><path d="M 50.730469 397.101562 L 129.480469 397.101562 L 129.480469 450 L 50.730469 450 Z M 50.730469 397.101562 " clip-rule="nonzero"/></clipPath><clipPath id="1cf44e33d9"><path d="M 1079 265 L 1125 265 L 1125 345 L 1079 345 Z M 1079 265 " clip-rule="nonzero"/></clipPath><clipPath id="db966ded3e"><path d="M 1072.511719 275.167969 L 1149.464844 258.441406 L 1166.191406 335.394531 L 1089.238281 352.121094 Z M 1072.511719 275.167969 " clip-rule="nonzero"/></clipPath><clipPath id="20c430977e"><path d="M 1072.511719 275.167969 L 1149.464844 258.441406 L 1166.191406 335.394531 L 1089.238281 352.121094 Z M 1072.511719 275.167969 " clip-rule="nonzero"/></clipPath><clipPath id="9c09c5488a"><path d="M 1072.511719 275.167969 L 1149.464844 258.441406 L 1166.191406 335.394531 L 1089.238281 352.121094 Z M 1072.511719 275.167969 " clip-rule="nonzero"/></clipPath><clipPath id="2df12a90fd"><path d="M 1097 280 L 1125 280 L 1125 332 L 1097 332 Z M 1097 280 " clip-rule="nonzero"/></clipPath><clipPath id="55ccd6f757"><path d="M 1072.511719 275.167969 L 1149.464844 258.441406 L 1166.191406 335.394531 L 1089.238281 352.121094 Z M 1072.511719 275.167969 " clip-rule="nonzero"/></clipPath><clipPath id="e3976d6474"><path d="M 1072.511719 275.167969 L 1149.464844 258.441406 L 1166.191406 335.394531 L 1089.238281 352.121094 Z M 1072.511719 275.167969 " clip-rule="nonzero"/></clipPath><clipPath id="356bba9c3b"><path d="M 1072.511719 275.167969 L 1149.464844 258.441406 L 1166.191406 335.394531 L 1089.238281 352.121094 Z M 1072.511719 275.167969 " clip-rule="nonzero"/></clipPath><clipPath id="45d0bffe90"><path d="M 523 0 L 602 0 L 602 52 L 523 52 Z M 523 0 " clip-rule="nonzero"/></clipPath><clipPath id="11e03692ce"><path d="M 544.941406 -40.132812 L 615.308594 -4.773438 L 579.945312 65.589844 L 509.582031 30.230469 Z M 544.941406 -40.132812 " clip-rule="nonzero"/></clipPath><clipPath id="1661c062c0"><path d="M 544.941406 -40.132812 L 615.308594 -4.773438 L 579.945312 65.589844 L 509.582031 30.230469 Z M 544.941406 -40.132812 " clip-rule="nonzero"/></clipPath><clipPath id="6d70318a17"><path d="M 544.941406 -40.132812 L 615.308594 -4.773438 L 579.945312 65.589844 L 509.582031 30.230469 Z M 544.941406 -40.132812 " clip-rule="nonzero"/></clipPath><clipPath id="f9697e9b3a"><path d="M 538 0 L 582 0 L 582 37 L 538 37 Z M 538 0 " clip-rule="nonzero"/></clipPath><clipPath id="f521ecc1ff"><path d="M 544.941406 -40.132812 L 615.308594 -4.773438 L 579.945312 65.589844 L 509.582031 30.230469 Z M 544.941406 -40.132812 " clip-rule="nonzero"/></clipPath><clipPath id="d06da6f58b"><path d="M 544.941406 -40.132812 L 615.308594 -4.773438 L 579.945312 65.589844 L 509.582031 30.230469 Z M 544.941406 -40.132812 " clip-rule="nonzero"/></clipPath><clipPath id="7f15ba9885"><path d="M 544.941406 -40.132812 L 615.308594 -4.773438 L 579.945312 65.589844 L 509.582031 30.230469 Z M 544.941406 -40.132812 " clip-rule="nonzero"/></clipPath><clipPath id="91d6ace91d"><path d="M 332 313 L 484 313 L 484 450 L 332 450 Z M 332 313 " clip-rule="nonzero"/></clipPath><clipPath id="43546d7a80"><path d="M 355.816406 296.105469 L 501.503906 337.664062 L 459.945312 483.351562 L 314.257812 441.792969 Z M 355.816406 296.105469 " clip-rule="nonzero"/></clipPath><clipPath id="4da78df3b8"><path d="M 355.816406 296.105469 L 501.503906 337.664062 L 459.945312 483.351562 L 314.257812 441.792969 Z M 355.816406 296.105469 " clip-rule="nonzero"/></clipPath><clipPath id="0e33780832"><path d="M 355.816406 296.105469 L 501.503906 337.664062 L 459.945312 483.351562 L 314.257812 441.792969 Z M 355.816406 296.105469 " clip-rule="nonzero"/></clipPath><clipPath id="0db05ade44"><path d="M 364 340 L 443 340 L 443 438 L 364 438 Z M 364 340 " clip-rule="nonzero"/></clipPath><clipPath id="670028c670"><path d="M 355.816406 296.105469 L 501.503906 337.664062 L 459.945312 483.351562 L 314.257812 441.792969 Z M 355.816406 296.105469 " clip-rule="nonzero"/></clipPath><clipPath id="f37693efc5"><path d="M 355.816406 296.105469 L 501.503906 337.664062 L 459.945312 483.351562 L 314.257812 441.792969 Z M 355.816406 296.105469 " clip-rule="nonzero"/></clipPath><clipPath id="6ea1770091"><path d="M 355.816406 296.105469 L 501.503906 337.664062 L 459.945312 483.351562 L 314.257812 441.792969 Z M 355.816406 296.105469 " clip-rule="nonzero"/></clipPath><clipPath id="1226fa5f55"><path d="M 330 29 L 409 29 L 409 108 L 330 108 Z M 330 29 " clip-rule="nonzero"/></clipPath><clipPath id="2362bb9da6"><path d="M 314.3125 62.269531 L 375.847656 13.125 L 424.992188 74.660156 L 363.457031 123.804688 Z M 314.3125 62.269531 " clip-rule="nonzero"/></clipPath><clipPath id="ab387ec0c7"><path d="M 314.3125 62.269531 L 375.847656 13.125 L 424.992188 74.660156 L 363.457031 123.804688 Z M 314.3125 62.269531 " clip-rule="nonzero"/></clipPath><clipPath id="90d7b8bb61"><path d="M 314.3125 62.269531 L 375.847656 13.125 L 424.992188 74.660156 L 363.457031 123.804688 Z M 314.3125 62.269531 " clip-rule="nonzero"/></clipPath><clipPath id="708c82275c"><path d="M 344 46 L 391 46 L 391 94 L 344 94 Z M 344 46 " clip-rule="nonzero"/></clipPath><clipPath id="83be489b18"><path d="M 314.3125 62.269531 L 375.847656 13.125 L 424.992188 74.660156 L 363.457031 123.804688 Z M 314.3125 62.269531 " clip-rule="nonzero"/></clipPath><clipPath id="6416131548"><path d="M 314.3125 62.269531 L 375.847656 13.125 L 424.992188 74.660156 L 363.457031 123.804688 Z M 314.3125 62.269531 " clip-rule="nonzero"/></clipPath><clipPath id="e23fa1af31"><path d="M 314.3125 62.269531 L 375.847656 13.125 L 424.992188 74.660156 L 363.457031 123.804688 Z M 314.3125 62.269531 " clip-rule="nonzero"/></clipPath><clipPath id="f7bdd89837"><path d="M 624 3 L 755 3 L 755 134 L 624 134 Z M 624 3 " clip-rule="nonzero"/></clipPath><clipPath id="c4d7cc3c4e"><path d="M 651.023438 -14.757812 L 772.703125 30.296875 L 727.648438 151.972656 L 605.972656 106.921875 Z M 651.023438 -14.757812 " clip-rule="nonzero"/></clipPath><clipPath id="d810d381e8"><path d="M 651.023438 -14.757812 L 772.703125 30.296875 L 727.648438 151.972656 L 605.972656 106.921875 Z M 651.023438 -14.757812 " clip-rule="nonzero"/></clipPath><clipPath id="2dd54f144b"><path d="M 651.023438 -14.757812 L 772.703125 30.296875 L 727.648438 151.972656 L 605.972656 106.921875 Z M 651.023438 -14.757812 " clip-rule="nonzero"/></clipPath><clipPath id="5b74db24a7"><path d="M 651 26 L 720 26 L 720 110 L 651 110 Z M 651 26 " clip-rule="nonzero"/></clipPath><clipPath id="8c6b5d6ba7"><path d="M 651.023438 -14.757812 L 772.703125 30.296875 L 727.648438 151.972656 L 605.972656 106.921875 Z M 651.023438 -14.757812 " clip-rule="nonzero"/></clipPath><clipPath id="0d41a90b10"><path d="M 651.023438 -14.757812 L 772.703125 30.296875 L 727.648438 151.972656 L 605.972656 106.921875 Z M 651.023438 -14.757812 " clip-rule="nonzero"/></clipPath><clipPath id="b6946fe150"><path d="M 651.023438 -14.757812 L 772.703125 30.296875 L 727.648438 151.972656 L 605.972656 106.921875 Z M 651.023438 -14.757812 " clip-rule="nonzero"/></clipPath><clipPath id="b0a9216e20"><path d="M 899 319 L 997 319 L 997 418 L 899 418 Z M 899 319 " clip-rule="nonzero"/></clipPath><clipPath id="b4e82d343c"><path d="M 880.875 383.988281 L 932.269531 301.132812 L 1015.121094 352.527344 L 963.730469 435.382812 Z M 880.875 383.988281 " clip-rule="nonzero"/></clipPath><clipPath id="7a88d5afff"><path d="M 880.875 383.988281 L 932.269531 301.132812 L 1015.121094 352.527344 L 963.730469 435.382812 Z M 880.875 383.988281 " clip-rule="nonzero"/></clipPath><clipPath id="fcda782fff"><path d="M 880.875 383.988281 L 932.269531 301.132812 L 1015.121094 352.527344 L 963.730469 435.382812 Z M 880.875 383.988281 " clip-rule="nonzero"/></clipPath><clipPath id="47452ee528"><path d="M 917 344 L 977 344 L 977 400 L 917 400 Z M 917 344 " clip-rule="nonzero"/></clipPath><clipPath id="96933a250b"><path d="M 880.875 383.988281 L 932.269531 301.132812 L 1015.121094 352.527344 L 963.730469 435.382812 Z M 880.875 383.988281 " clip-rule="nonzero"/></clipPath><clipPath id="ff5d9cf798"><path d="M 880.875 383.988281 L 932.269531 301.132812 L 1015.121094 352.527344 L 963.730469 435.382812 Z M 880.875 383.988281 " clip-rule="nonzero"/></clipPath><clipPath id="5a4412e632"><path d="M 880.875 383.988281 L 932.269531 301.132812 L 1015.121094 352.527344 L 963.730469 435.382812 Z M 880.875 383.988281 " clip-rule="nonzero"/></clipPath><clipPath id="6fbc10eb23"><path d="M 819 0 L 917 0 L 917 62 L 819 62 Z M 819 0 " clip-rule="nonzero"/></clipPath><clipPath id="0b690a41c2"><path d="M 839.074219 -49.863281 L 930.507812 -16.011719 L 896.652344 75.421875 L 805.21875 41.570312 Z M 839.074219 -49.863281 " clip-rule="nonzero"/></clipPath><clipPath id="45f10a6594"><path d="M 839.074219 -49.863281 L 930.507812 -16.011719 L 896.652344 75.421875 L 805.21875 41.570312 Z M 839.074219 -49.863281 " clip-rule="nonzero"/></clipPath><clipPath id="f5c2a3986f"><path d="M 839.074219 -49.863281 L 930.507812 -16.011719 L 896.652344 75.421875 L 805.21875 41.570312 Z M 839.074219 -49.863281 " clip-rule="nonzero"/></clipPath><clipPath id="001d65a7fc"><path d="M 839 0 L 891 0 L 891 44 L 839 44 Z M 839 0 " clip-rule="nonzero"/></clipPath><clipPath id="005d33c4e1"><path d="M 839.074219 -49.863281 L 930.507812 -16.011719 L 896.652344 75.421875 L 805.21875 41.570312 Z M 839.074219 -49.863281 " clip-rule="nonzero"/></clipPath><clipPath id="a5db0ceb25"><path d="M 839.074219 -49.863281 L 930.507812 -16.011719 L 896.652344 75.421875 L 805.21875 41.570312 Z M 839.074219 -49.863281 " clip-rule="nonzero"/></clipPath><clipPath id="d28eda22eb"><path d="M 839.074219 -49.863281 L 930.507812 -16.011719 L 896.652344 75.421875 L 805.21875 41.570312 Z M 839.074219 -49.863281 " clip-rule="nonzero"/></clipPath><clipPath id="3e314e00fa"><path d="M 140 0 L 264 0 L 264 95 L 140 95 Z M 140 0 " clip-rule="nonzero"/></clipPath><clipPath id="517c1cccd2"><path d="M 119.667969 6.085938 L 229.144531 -49.984375 L 285.214844 59.496094 L 175.738281 115.5625 Z M 119.667969 6.085938 " clip-rule="nonzero"/></clipPath><clipPath id="95231ea18c"><path d="M 119.667969 6.085938 L 229.144531 -49.984375 L 285.214844 59.496094 L 175.738281 115.5625 Z M 119.667969 6.085938 " clip-rule="nonzero"/></clipPath><clipPath id="2bc7ab22c3"><path d="M 119.667969 6.085938 L 229.144531 -49.984375 L 285.214844 59.496094 L 175.738281 115.5625 Z M 119.667969 6.085938 " clip-rule="nonzero"/></clipPath><clipPath id="b4cfeaa7db"><path d="M 164 0 L 236 0 L 236 73 L 164 73 Z M 164 0 " clip-rule="nonzero"/></clipPath><clipPath id="3c688d0473"><path d="M 119.667969 6.085938 L 229.144531 -49.984375 L 285.214844 59.496094 L 175.738281 115.5625 Z M 119.667969 6.085938 " clip-rule="nonzero"/></clipPath><clipPath id="94b4a22271"><path d="M 119.667969 6.085938 L 229.144531 -49.984375 L 285.214844 59.496094 L 175.738281 115.5625 Z M 119.667969 6.085938 " clip-rule="nonzero"/></clipPath><clipPath id="eb3d89cb97"><path d="M 119.667969 6.085938 L 229.144531 -49.984375 L 285.214844 59.496094 L 175.738281 115.5625 Z M 119.667969 6.085938 " clip-rule="nonzero"/></clipPath><clipPath id="10d94cf91d"><path d="M 0 212 L 39 212 L 39 292 L 0 292 Z M 0 212 " clip-rule="nonzero"/></clipPath><clipPath id="16bcc2cc1e"><path d="M -53.160156 235.0625 L 16.929688 199.167969 L 52.828125 269.257812 L -17.261719 305.15625 Z M -53.160156 235.0625 " clip-rule="nonzero"/></clipPath><clipPath id="0a9b20f4e0"><path d="M -53.160156 235.0625 L 16.929688 199.167969 L 52.828125 269.257812 L -17.261719 305.15625 Z M -53.160156 235.0625 " clip-rule="nonzero"/></clipPath><clipPath id="8d1b36e6dd"><path d="M -53.160156 235.0625 L 16.929688 199.167969 L 52.828125 269.257812 L -17.261719 305.15625 Z M -53.160156 235.0625 " clip-rule="nonzero"/></clipPath><clipPath id="0a0bf7177b"><path d="M 0 228 L 21 228 L 21 278 L 0 278 Z M 0 228 " clip-rule="nonzero"/></clipPath><clipPath id="e6d5ed0830"><path d="M -53.160156 235.0625 L 16.929688 199.167969 L 52.828125 269.257812 L -17.261719 305.15625 Z M -53.160156 235.0625 " clip-rule="nonzero"/></clipPath><clipPath id="b6376bb3e5"><path d="M -53.160156 235.0625 L 16.929688 199.167969 L 52.828125 269.257812 L -17.261719 305.15625 Z M -53.160156 235.0625 " clip-rule="nonzero"/></clipPath><clipPath id="31c6787348"><path d="M -53.160156 235.0625 L 16.929688 199.167969 L 52.828125 269.257812 L -17.261719 305.15625 Z M -53.160156 235.0625 " clip-rule="nonzero"/></clipPath><clipPath id="2cb7b45baa"><path d="M 1079 79 L 1125 79 L 1125 159 L 1079 159 Z M 1079 79 " clip-rule="nonzero"/></clipPath><clipPath id="b270ffef66"><path d="M 1066.335938 101.660156 L 1136.429688 65.761719 L 1172.328125 135.851562 L 1102.234375 171.75 Z M 1066.335938 101.660156 " clip-rule="nonzero"/></clipPath><clipPath id="c10feadf79"><path d="M 1066.335938 101.660156 L 1136.429688 65.761719 L 1172.328125 135.851562 L 1102.234375 171.75 Z M 1066.335938 101.660156 " clip-rule="nonzero"/></clipPath><clipPath id="1ab0895726"><path d="M 1066.335938 101.660156 L 1136.429688 65.761719 L 1172.328125 135.851562 L 1102.234375 171.75 Z M 1066.335938 101.660156 " clip-rule="nonzero"/></clipPath><clipPath id="4813abefb2"><path d="M 1095 94 L 1125 94 L 1125 145 L 1095 145 Z M 1095 94 " clip-rule="nonzero"/></clipPath><clipPath id="fa09abefe8"><path d="M 1066.335938 101.660156 L 1136.429688 65.761719 L 1172.328125 135.851562 L 1102.234375 171.75 Z M 1066.335938 101.660156 " clip-rule="nonzero"/></clipPath><clipPath id="3c538e7f06"><path d="M 1066.335938 101.660156 L 1136.429688 65.761719 L 1172.328125 135.851562 L 1102.234375 171.75 Z M 1066.335938 101.660156 " clip-rule="nonzero"/></clipPath><clipPath id="6de07ec806"><path d="M 1066.335938 101.660156 L 1136.429688 65.761719 L 1172.328125 135.851562 L 1102.234375 171.75 Z M 1066.335938 101.660156 " clip-rule="nonzero"/></clipPath></defs><rect x="-112.5" width="1350" fill="#ffffff" y="-44.999998" height="539.99998" fill-opacity="1"/><rect x="-112.5" width="1350" fill="#ffffff" y="-44.999998" height="539.99998" fill-opacity="1"/><g fill="#ff3131" fill-opacity="1"><g transform="translate(75.902358, 249.123732)"><g><path d="M 68.65625 -77.71875 C 68.226562 -82.007812 66.390625 -85.34375 63.140625 -87.71875 C 59.898438 -90.101562 55.523438 -91.296875 50.015625 -91.296875 C 44.367188 -91.296875 40.035156 -90.140625 37.015625 -87.828125 C 34.003906 -85.523438 32.5 -82.613281 32.5 -79.09375 C 32.425781 -75.1875 34.101562 -72.226562 37.53125 -70.21875 C 40.957031 -68.21875 45.03125 -66.671875 49.75 -65.578125 L 59.546875 -63.234375 C 65.867188 -61.804688 71.488281 -59.742188 76.40625 -57.046875 C 81.320312 -54.347656 85.191406 -50.875 88.015625 -46.625 C 90.847656 -42.382812 92.265625 -37.226562 92.265625 -31.15625 C 92.222656 -21.175781 88.484375 -13.226562 81.046875 -7.3125 C 73.609375 -1.40625 63.226562 1.546875 49.90625 1.546875 C 36.664062 1.546875 26.101562 -1.46875 18.21875 -7.5 C 10.332031 -13.539062 6.25 -22.457031 5.96875 -34.25 L 28.28125 -34.25 C 28.675781 -28.78125 30.832031 -24.671875 34.75 -21.921875 C 38.675781 -19.171875 43.640625 -17.796875 49.640625 -17.796875 C 55.503906 -17.796875 60.179688 -19.035156 63.671875 -21.515625 C 67.171875 -24.003906 68.941406 -27.238281 68.984375 -31.21875 C 68.941406 -34.90625 67.320312 -37.742188 64.125 -39.734375 C 60.9375 -41.722656 56.375 -43.425781 50.4375 -44.84375 L 38.5625 -47.828125 C 29.363281 -50.035156 22.097656 -53.535156 16.765625 -58.328125 C 11.441406 -63.117188 8.800781 -69.53125 8.84375 -77.5625 C 8.800781 -84.164062 10.566406 -89.941406 14.140625 -94.890625 C 17.710938 -99.847656 22.625 -103.703125 28.875 -106.453125 C 35.125 -109.203125 42.222656 -110.578125 50.171875 -110.578125 C 58.273438 -110.578125 65.351562 -109.191406 71.40625 -106.421875 C 77.457031 -103.648438 82.171875 -99.796875 85.546875 -94.859375 C 88.921875 -89.929688 90.660156 -84.21875 90.765625 -77.71875 Z M 68.65625 -77.71875 "/></g></g></g><g fill="#ff3131" fill-opacity="1"><g transform="translate(174.126807, 249.123732)"><g><path d="M 32.546875 -109.09375 L 32.546875 0 L 9.484375 0 L 9.484375 -109.09375 Z M 32.546875 -109.09375 "/></g></g></g><g fill="#ff3131" fill-opacity="1"><g transform="translate(216.207782, 249.123732)"><g><path d="M 48.15625 0 L 9.484375 0 L 9.484375 -109.09375 L 48.46875 -109.09375 C 59.445312 -109.09375 68.90625 -106.914062 76.84375 -102.5625 C 84.78125 -98.21875 90.878906 -91.976562 95.140625 -83.84375 C 99.398438 -75.707031 101.53125 -65.976562 101.53125 -54.65625 C 101.53125 -43.289062 99.390625 -33.523438 95.109375 -25.359375 C 90.828125 -17.191406 84.695312 -10.921875 76.71875 -6.546875 C 68.75 -2.179688 59.226562 0 48.15625 0 Z M 32.546875 -19.765625 L 47.1875 -19.765625 C 57.457031 -19.765625 65.242188 -22.53125 70.546875 -28.0625 C 75.859375 -33.601562 78.515625 -42.46875 78.515625 -54.65625 C 78.515625 -66.757812 75.859375 -75.5625 70.546875 -81.0625 C 65.242188 -86.570312 57.476562 -89.328125 47.25 -89.328125 L 32.546875 -89.328125 Z M 32.546875 -19.765625 "/></g></g></g><g fill="#ff3131" fill-opacity="1"><g transform="translate(325.298716, 249.123732)"><g><path d="M 9.484375 0 L 9.484375 -109.09375 L 82.984375 -109.09375 L 82.984375 -90.078125 L 32.546875 -90.078125 L 32.546875 -64.078125 L 79.203125 -64.078125 L 79.203125 -45.0625 L 32.546875 -45.0625 L 32.546875 -19.015625 L 83.203125 -19.015625 L 83.203125 0 Z M 9.484375 0 "/></g></g></g><g fill="#ff3131" fill-opacity="1"><g transform="translate(417.184374, 249.123732)"><g/></g></g><g fill="#ff3131" fill-opacity="1"><g transform="translate(451.967773, 249.123732)"><g><path d="M 60.03125 -53.796875 L 60.03125 -35.796875 L 10.28125 -35.796875 L 10.28125 -53.796875 Z M 60.03125 -53.796875 "/></g></g></g><g fill="#ff3131" fill-opacity="1"><g transform="translate(522.280314, 249.123732)"><g/></g></g><g fill="#ff3131" fill-opacity="1"><g transform="translate(557.063713, 249.123732)"><g><path d="M 48.15625 0 L 9.484375 0 L 9.484375 -109.09375 L 48.46875 -109.09375 C 59.445312 -109.09375 68.90625 -106.914062 76.84375 -102.5625 C 84.78125 -98.21875 90.878906 -91.976562 95.140625 -83.84375 C 99.398438 -75.707031 101.53125 -65.976562 101.53125 -54.65625 C 101.53125 -43.289062 99.390625 -33.523438 95.109375 -25.359375 C 90.828125 -17.191406 84.695312 -10.921875 76.71875 -6.546875 C 68.75 -2.179688 59.226562 0 48.15625 0 Z M 32.546875 -19.765625 L 47.1875 -19.765625 C 57.457031 -19.765625 65.242188 -22.53125 70.546875 -28.0625 C 75.859375 -33.601562 78.515625 -42.46875 78.515625 -54.65625 C 78.515625 -66.757812 75.859375 -75.5625 70.546875 -81.0625 C 65.242188 -86.570312 57.476562 -89.328125 47.25 -89.328125 L 32.546875 -89.328125 Z M 32.546875 -19.765625 "/></g></g></g><g fill="#ff3131" fill-opacity="1"><g transform="translate(666.154647, 249.123732)"><g><path d="M 109.734375 -54.546875 C 109.734375 -42.648438 107.484375 -32.53125 102.984375 -24.1875 C 98.492188 -15.84375 92.394531 -9.476562 84.6875 -5.09375 C 76.988281 -0.707031 68.304688 1.484375 58.640625 1.484375 C 48.953125 1.484375 40.253906 -0.710938 32.546875 -5.109375 C 24.835938 -9.515625 18.742188 -15.898438 14.265625 -24.265625 C 9.796875 -32.628906 7.5625 -42.722656 7.5625 -54.546875 C 7.5625 -66.441406 9.796875 -76.5625 14.265625 -84.90625 C 18.742188 -93.25 24.835938 -99.613281 32.546875 -104 C 40.253906 -108.382812 48.953125 -110.578125 58.640625 -110.578125 C 68.304688 -110.578125 76.988281 -108.382812 84.6875 -104 C 92.394531 -99.613281 98.492188 -93.25 102.984375 -84.90625 C 107.484375 -76.5625 109.734375 -66.441406 109.734375 -54.546875 Z M 86.34375 -54.546875 C 86.34375 -66.117188 83.820312 -74.953125 78.78125 -81.046875 C 73.738281 -87.140625 67.023438 -90.1875 58.640625 -90.1875 C 50.265625 -90.1875 43.554688 -87.140625 38.515625 -81.046875 C 33.472656 -74.953125 30.953125 -66.117188 30.953125 -54.546875 C 30.953125 -43.003906 33.472656 -34.175781 38.515625 -28.0625 C 43.554688 -21.957031 50.265625 -18.90625 58.640625 -18.90625 C 67.023438 -18.90625 73.738281 -21.957031 78.78125 -28.0625 C 83.820312 -34.175781 86.34375 -43.003906 86.34375 -54.546875 Z M 86.34375 -54.546875 "/></g></g></g><g fill="#ff3131" fill-opacity="1"><g transform="translate(783.448705, 249.123732)"><g><path d="M 34.03125 0 L 2.828125 -109.09375 L 28.015625 -109.09375 L 46.078125 -33.296875 L 46.984375 -33.296875 L 66.90625 -109.09375 L 88.46875 -109.09375 L 108.34375 -33.125 L 109.296875 -33.125 L 127.359375 -109.09375 L 152.5625 -109.09375 L 121.34375 0 L 98.859375 0 L 78.09375 -71.328125 L 77.234375 -71.328125 L 56.515625 0 Z M 34.03125 0 "/></g></g></g><g fill="#ff3131" fill-opacity="1"><g transform="translate(938.828743, 249.123732)"><g><path d="M 100.734375 -109.09375 L 100.734375 0 L 80.8125 0 L 33.34375 -68.65625 L 32.546875 -68.65625 L 32.546875 0 L 9.484375 0 L 9.484375 -109.09375 L 29.71875 -109.09375 L 76.8125 -40.484375 L 77.765625 -40.484375 L 77.765625 -109.09375 Z M 100.734375 -109.09375 "/></g></g></g><g clip-path="url(#5f6d5b3946)"><g clip-path="url(#d36c50028d)"><g clip-path="url(#28c6793027)"><g clip-path="url(#9d146395dd)"><path fill="#000000" d="M 1102.449219 -22.742188 C 1122.070312 -13.355469 1130.355469 10.160156 1120.976562 29.769531 C 1112.476562 47.535156 1088.074219 57.675781 1068.464844 48.296875 C 1048.859375 38.917969 1040.550781 15.40625 1049.9375 -4.214844 C 1059.324219 -23.835938 1082.839844 -32.121094 1102.449219 -22.742188 Z M 1102.449219 -22.742188 " fill-opacity="1" fill-rule="nonzero"/></g></g></g></g><g clip-path="url(#31540031ff)"><g clip-path="url(#b766808da0)"><g clip-path="url(#441bded253)"><g clip-path="url(#a211e34a19)"><path fill="#ffffff" d="M 1096.265625 16.867188 C 1099.285156 16.683594 1102.277344 14.875 1103.691406 11.917969 C 1106.011719 7.066406 1103.285156 1.480469 1097.707031 -1.191406 L 1097.050781 -1.503906 L 1100.042969 -7.75 L 1095.859375 -9.753906 L 1092.867188 -3.503906 L 1090.859375 -4.464844 L 1093.847656 -10.714844 L 1089.664062 -12.714844 L 1086.675781 -6.464844 L 1079.59375 -9.855469 L 1076.902344 -11.144531 L 1073.746094 -4.546875 L 1077.496094 -2.753906 L 1068.257812 16.5625 L 1064.503906 14.769531 L 1061.355469 21.351562 L 1064.0625 22.644531 L 1071.148438 26.035156 L 1068.257812 32.074219 L 1072.441406 34.074219 L 1075.332031 28.035156 L 1077.339844 28.996094 L 1074.449219 35.035156 L 1078.632812 37.035156 L 1081.523438 30.996094 L 1083.378906 31.882812 C 1089.445312 34.785156 1095.703125 33.273438 1098.164062 28.128906 C 1099.976562 24.265625 1099.160156 19.707031 1096.265625 16.867188 Z M 1091.191406 3.800781 L 1092.445312 4.398438 C 1094.398438 5.332031 1095.3125 7.328125 1094.453125 9.128906 C 1093.617188 10.871094 1091.40625 11.441406 1089.511719 10.535156 L 1082.691406 7.273438 L 1085.621094 1.152344 L 1091.183594 3.8125 Z M 1084.449219 24.308594 L 1081.953125 23.113281 L 1076.386719 20.453125 L 1079.742188 13.4375 L 1087.804688 17.292969 C 1090.078125 18.378906 1091.078125 20.761719 1090.132812 22.742188 C 1089.171875 24.714844 1086.722656 25.394531 1084.449219 24.308594 Z M 1084.449219 24.308594 " fill-opacity="1" fill-rule="nonzero"/></g></g></g></g><g clip-path="url(#d7451bd4f3)"><g clip-path="url(#ee04cac983)"><g clip-path="url(#2216df7450)"><g clip-path="url(#507ba2ff9c)"><path fill="#000000" d="M 651.007812 322.5 C 670.371094 312.585938 694.097656 320.253906 704.003906 339.597656 C 712.984375 357.128906 706.253906 382.6875 686.90625 392.59375 C 667.5625 402.503906 643.828125 394.855469 633.914062 375.496094 C 623.996094 356.136719 631.664062 332.410156 651.007812 322.5 Z M 651.007812 322.5 " fill-opacity="1" fill-rule="nonzero"/></g></g></g></g><g clip-path="url(#027fed1d34)"><g clip-path="url(#8b7ac89573)"><g clip-path="url(#de9a3f7efe)"><g clip-path="url(#8e08946fac)"><path fill="#ffffff" d="M 678.765625 351.429688 C 680.449219 348.917969 680.824219 345.445312 679.328125 342.527344 C 676.875 337.738281 670.78125 336.519531 665.277344 339.335938 L 664.628906 339.667969 L 661.472656 333.503906 L 657.34375 335.617188 L 660.503906 341.78125 L 658.519531 342.796875 L 655.363281 336.632812 L 651.234375 338.746094 L 654.394531 344.910156 L 647.402344 348.492188 L 644.746094 349.851562 L 648.082031 356.359375 L 651.78125 354.464844 L 661.542969 373.523438 L 657.839844 375.417969 L 661.167969 381.910156 L 663.835938 380.542969 L 670.828125 376.964844 L 673.878906 382.921875 L 678.003906 380.808594 L 674.953125 374.851562 L 676.9375 373.835938 L 679.988281 379.792969 L 684.113281 377.679688 L 681.0625 371.722656 L 682.894531 370.785156 C 688.878906 367.71875 691.46875 361.824219 688.871094 356.746094 C 686.898438 352.964844 682.777344 350.851562 678.765625 351.429688 Z M 665.292969 347.542969 L 666.53125 346.910156 C 668.457031 345.921875 670.601562 346.40625 671.507812 348.183594 C 672.390625 349.902344 671.503906 352.003906 669.632812 352.964844 L 662.90625 356.410156 L 659.8125 350.371094 L 665.300781 347.558594 Z M 677.515625 365.339844 L 675.054688 366.601562 L 669.5625 369.414062 L 666.019531 362.492188 L 673.972656 358.417969 C 676.214844 357.269531 678.71875 357.917969 679.71875 359.871094 C 680.707031 361.832031 679.761719 364.191406 677.515625 365.339844 Z M 677.515625 365.339844 " fill-opacity="1" fill-rule="nonzero"/></g></g></g></g><g clip-path="url(#cf71d89a73)"><path fill="#000000" d="M 50.605469 45 C 72.355469 45 89.980469 62.640625 89.980469 84.375 C 89.980469 104.070312 72.339844 123.75 50.605469 123.75 C 28.871094 123.75 11.230469 106.125 11.230469 84.375 C 11.230469 62.625 28.871094 45 50.605469 45 Z M 50.605469 45 " fill-opacity="1" fill-rule="nonzero"/></g><path fill="#ffffff" d="M 62.121094 83.402344 C 64.765625 81.933594 66.683594 79.011719 66.683594 75.734375 C 66.683594 70.351562 61.8125 66.488281 55.628906 66.488281 L 54.902344 66.488281 L 54.902344 59.5625 L 50.265625 59.5625 L 50.265625 66.488281 L 48.039062 66.488281 L 48.039062 59.5625 L 43.402344 59.5625 L 43.402344 66.488281 L 32.566406 66.488281 L 32.566406 73.800781 L 36.722656 73.800781 L 36.722656 95.210938 L 32.566406 95.210938 L 32.566406 102.507812 L 43.417969 102.507812 L 43.417969 109.203125 L 48.054688 109.203125 L 48.054688 102.507812 L 50.28125 102.507812 L 50.28125 109.203125 L 54.917969 109.203125 L 54.917969 102.507812 L 56.976562 102.507812 C 63.699219 102.507812 68.691406 98.441406 68.691406 92.738281 C 68.660156 88.472656 65.957031 84.714844 62.121094 83.402344 Z M 51.902344 73.800781 L 53.296875 73.800781 C 55.460938 73.800781 57.144531 75.207031 57.144531 77.203125 C 57.144531 79.132812 55.398438 80.601562 53.296875 80.601562 L 45.734375 80.601562 L 45.734375 73.816406 L 51.902344 73.816406 Z M 54.671875 95.210938 L 45.734375 95.210938 L 45.734375 87.4375 L 54.671875 87.4375 C 57.191406 87.4375 59.125 89.152344 59.125 91.347656 C 59.109375 93.542969 57.191406 95.210938 54.671875 95.210938 Z M 54.671875 95.210938 " fill-opacity="1" fill-rule="nonzero"/><g clip-path="url(#b7db81e539)"><path fill="#000000" d="M 90.105469 397.101562 C 111.855469 397.101562 129.480469 414.738281 129.480469 436.476562 C 129.480469 456.171875 111.839844 475.851562 90.105469 475.851562 C 68.367188 475.851562 50.730469 458.226562 50.730469 436.476562 C 50.730469 414.722656 68.367188 397.101562 90.105469 397.101562 Z M 90.105469 397.101562 " fill-opacity="1" fill-rule="nonzero"/></g><path fill="#ffffff" d="M 101.621094 435.5 C 104.265625 434.03125 106.183594 431.109375 106.183594 427.832031 C 106.183594 422.453125 101.3125 418.589844 95.128906 418.589844 L 94.402344 418.589844 L 94.402344 411.664062 L 89.765625 411.664062 L 89.765625 418.589844 L 87.539062 418.589844 L 87.539062 411.664062 L 82.898438 411.664062 L 82.898438 418.589844 L 72.0625 418.589844 L 72.0625 425.902344 L 76.222656 425.902344 L 76.222656 447.3125 L 72.0625 447.3125 L 72.0625 454.609375 L 82.914062 454.609375 L 82.914062 461.304688 L 87.554688 461.304688 L 87.554688 454.609375 L 89.78125 454.609375 L 89.78125 461.304688 L 94.417969 461.304688 L 94.417969 454.609375 L 96.472656 454.609375 C 103.199219 454.609375 108.191406 450.542969 108.191406 444.839844 C 108.160156 440.570312 105.457031 436.816406 101.621094 435.5 Z M 91.402344 425.902344 L 92.792969 425.902344 C 94.957031 425.902344 96.644531 427.308594 96.644531 429.300781 C 96.644531 431.234375 94.898438 432.703125 92.792969 432.703125 L 85.234375 432.703125 L 85.234375 425.917969 L 91.402344 425.917969 Z M 94.171875 447.3125 L 85.234375 447.3125 L 85.234375 439.535156 L 94.171875 439.535156 C 96.691406 439.535156 98.621094 441.253906 98.621094 443.449219 C 98.605469 445.644531 96.691406 447.3125 94.171875 447.3125 Z M 94.171875 447.3125 " fill-opacity="1" fill-rule="nonzero"/><g clip-path="url(#1cf44e33d9)"><g clip-path="url(#db966ded3e)"><g clip-path="url(#20c430977e)"><g clip-path="url(#9c09c5488a)"><path fill="#000000" d="M 1110.988281 266.804688 C 1132.242188 262.183594 1153.210938 275.679688 1157.828125 296.917969 C 1162.011719 316.164062 1148.953125 339.140625 1127.714844 343.757812 C 1106.476562 348.375 1085.496094 334.898438 1080.875 313.644531 C 1076.253906 292.390625 1089.75 271.421875 1110.988281 266.804688 Z M 1110.988281 266.804688 " fill-opacity="1" fill-rule="nonzero"/></g></g></g></g><g clip-path="url(#2df12a90fd)"><g clip-path="url(#55ccd6f757)"><g clip-path="url(#e3976d6474)"><g clip-path="url(#356bba9c3b)"><path fill="#ffffff" d="M 1130.398438 301.882812 C 1132.671875 299.886719 1133.921875 296.625 1133.226562 293.421875 C 1132.085938 288.164062 1126.503906 285.421875 1120.460938 286.734375 L 1119.75 286.890625 L 1118.28125 280.121094 L 1113.75 281.109375 L 1115.21875 287.875 L 1113.042969 288.347656 L 1111.574219 281.582031 L 1107.042969 282.566406 L 1108.511719 289.332031 L 1100.839844 291 L 1097.921875 291.636719 L 1099.476562 298.78125 L 1103.539062 297.898438 L 1108.085938 318.820312 L 1104.023438 319.703125 L 1105.574219 326.832031 L 1108.503906 326.195312 L 1116.179688 324.527344 L 1117.601562 331.070312 L 1122.132812 330.085938 L 1120.710938 323.542969 L 1122.886719 323.070312 L 1124.308594 329.613281 L 1128.839844 328.625 L 1127.417969 322.085938 L 1129.425781 321.648438 C 1136 320.21875 1140.015625 315.1875 1138.804688 309.613281 C 1137.867188 305.449219 1134.425781 302.351562 1130.398438 301.882812 Z M 1118.375 294.671875 L 1119.734375 294.378906 C 1121.847656 293.917969 1123.792969 294.933594 1124.21875 296.882812 C 1124.628906 298.773438 1123.234375 300.578125 1121.179688 301.023438 L 1113.792969 302.628906 L 1112.351562 296 L 1118.378906 294.6875 Z M 1125.625 315.007812 L 1122.921875 315.59375 L 1116.894531 316.90625 L 1115.242188 309.308594 L 1123.976562 307.410156 C 1126.4375 306.875 1128.691406 308.140625 1129.15625 310.285156 C 1129.609375 312.433594 1128.089844 314.472656 1125.625 315.007812 Z M 1125.625 315.007812 " fill-opacity="1" fill-rule="nonzero"/></g></g></g></g><g clip-path="url(#45d0bffe90)"><g clip-path="url(#11e03692ce)"><g clip-path="url(#1661c062c0)"><g clip-path="url(#6d70318a17)"><path fill="#000000" d="M 580.125 -22.453125 C 599.558594 -12.6875 607.386719 10.988281 597.628906 30.410156 C 588.785156 48.007812 564.1875 57.671875 544.765625 47.910156 C 525.34375 38.152344 517.496094 14.484375 527.261719 -4.953125 C 537.03125 -24.386719 560.703125 -32.214844 580.125 -22.453125 Z M 580.125 -22.453125 " fill-opacity="1" fill-rule="nonzero"/></g></g></g></g><g clip-path="url(#f9697e9b3a)"><g clip-path="url(#f521ecc1ff)"><g clip-path="url(#d06da6f58b)"><g clip-path="url(#7f15ba9885)"><path fill="#ffffff" d="M 573.171875 17.03125 C 576.195312 16.90625 579.21875 15.15625 580.691406 12.226562 C 583.105469 7.417969 580.492188 1.777344 574.964844 -0.996094 L 574.316406 -1.324219 L 577.425781 -7.511719 L 573.28125 -9.59375 L 570.171875 -3.40625 L 568.183594 -4.40625 L 571.292969 -10.59375 L 567.148438 -12.675781 L 564.039062 -6.488281 L 557.023438 -10.015625 L 554.355469 -11.355469 L 551.074219 -4.820312 L 554.789062 -2.953125 L 545.175781 16.179688 L 541.457031 14.308594 L 538.183594 20.832031 L 540.863281 22.175781 L 547.878906 25.703125 L 544.875 31.683594 L 549.015625 33.765625 L 552.023438 27.785156 L 554.011719 28.785156 L 551.007812 34.765625 L 555.152344 36.847656 L 558.15625 30.867188 L 559.992188 31.792969 C 566.003906 34.8125 572.289062 33.421875 574.851562 28.324219 C 576.738281 24.496094 576.007812 19.925781 573.171875 17.03125 Z M 568.351562 3.863281 L 569.597656 4.488281 C 571.53125 5.460938 572.402344 7.472656 571.507812 9.253906 C 570.640625 10.980469 568.421875 11.507812 566.542969 10.566406 L 559.789062 7.171875 L 562.835938 1.105469 L 568.347656 3.875 Z M 561.210938 24.238281 L 558.738281 22.996094 L 553.226562 20.226562 L 556.71875 13.277344 L 564.703125 17.289062 C 566.953125 18.421875 567.910156 20.820312 566.925781 22.78125 C 565.925781 24.738281 563.464844 25.367188 561.210938 24.238281 Z M 561.210938 24.238281 " fill-opacity="1" fill-rule="nonzero"/></g></g></g></g><g clip-path="url(#91d6ace91d)"><g clip-path="url(#43546d7a80)"><g clip-path="url(#4da78df3b8)"><g clip-path="url(#0e33780832)"><path fill="#000000" d="M 428.660156 316.882812 C 468.898438 328.363281 492.195312 370.296875 480.722656 410.507812 C 470.332031 446.941406 427.3125 474.042969 387.101562 462.570312 C 346.890625 451.101562 323.558594 409.1875 335.035156 368.949219 C 346.515625 328.707031 388.449219 305.414062 428.660156 316.882812 Z M 428.660156 316.882812 " fill-opacity="1" fill-rule="nonzero"/></g></g></g></g><g clip-path="url(#0db05ade44)"><g clip-path="url(#670028c670)"><g clip-path="url(#f37693efc5)"><g clip-path="url(#6ea1770091)"><path fill="#ffffff" d="M 429.699219 394.003906 C 435.367188 392.679688 440.453125 388.289062 442.183594 382.222656 C 445.023438 372.273438 438.054688 362.550781 426.613281 359.289062 L 425.269531 358.90625 L 428.925781 346.09375 L 420.34375 343.644531 L 416.691406 356.457031 L 412.570312 355.28125 L 416.226562 342.46875 L 407.648438 340.023438 L 403.992188 352.835938 L 389.460938 348.691406 L 383.941406 347.117188 L 380.085938 360.644531 L 387.777344 362.839844 L 376.476562 402.449219 L 368.785156 400.253906 L 364.933594 413.753906 L 370.484375 415.335938 L 385.011719 419.480469 L 381.480469 431.867188 L 390.058594 434.3125 L 393.589844 421.929688 L 397.710938 423.105469 L 394.175781 435.488281 L 402.757812 437.933594 L 406.289062 425.550781 L 410.09375 426.636719 C 422.535156 430.183594 433.917969 425.296875 436.929688 414.746094 C 439.121094 406.835938 436.101562 398.457031 429.699219 394.003906 Z M 415.863281 370.851562 L 418.4375 371.585938 C 422.441406 372.726562 424.816406 376.21875 423.761719 379.90625 C 422.742188 383.484375 418.738281 385.277344 414.847656 384.167969 L 400.863281 380.179688 L 404.441406 367.625 L 415.855469 370.878906 Z M 409.683594 411.921875 L 404.5625 410.460938 L 393.152344 407.207031 L 397.253906 392.820312 L 413.785156 397.535156 C 418.449219 398.867188 421.117188 403.058594 419.960938 407.121094 C 418.773438 411.175781 414.34375 413.25 409.683594 411.921875 Z M 409.683594 411.921875 " fill-opacity="1" fill-rule="nonzero"/></g></g></g></g><g clip-path="url(#1226fa5f55)"><g clip-path="url(#2362bb9da6)"><g clip-path="url(#ab387ec0c7)"><g clip-path="url(#90d7b8bb61)"><path fill="#000000" d="M 345.082031 37.699219 C 362.078125 24.125 386.855469 26.910156 400.417969 43.890625 C 412.710938 59.28125 411.207031 85.667969 394.222656 99.230469 C 377.242188 112.796875 352.460938 110.03125 338.886719 93.035156 C 325.3125 76.039062 328.097656 51.261719 345.082031 37.699219 Z M 345.082031 37.699219 " fill-opacity="1" fill-rule="nonzero"/></g></g></g></g><g clip-path="url(#708c82275c)"><g clip-path="url(#83be489b18)"><g clip-path="url(#6416131548)"><g clip-path="url(#e23fa1af31)"><path fill="#ffffff" d="M 378.042969 60.515625 C 379.191406 57.71875 378.867188 54.238281 376.824219 51.679688 C 373.464844 47.476562 367.25 47.492188 362.417969 51.351562 L 361.847656 51.804688 L 357.527344 46.394531 L 353.902344 49.289062 L 358.222656 54.699219 L 356.484375 56.089844 L 352.164062 50.679688 L 348.539062 53.574219 L 352.859375 58.984375 L 346.726562 63.886719 L 344.394531 65.746094 L 348.957031 71.460938 L 352.207031 68.867188 L 365.566406 85.597656 L 362.320312 88.191406 L 366.871094 93.894531 L 369.214844 92.019531 L 375.351562 87.121094 L 379.527344 92.351562 L 383.152344 89.457031 L 378.976562 84.226562 L 380.714844 82.835938 L 384.894531 88.066406 L 388.515625 85.171875 L 384.339844 79.941406 L 385.945312 78.660156 C 391.199219 74.460938 392.566406 68.167969 389.003906 63.710938 C 386.316406 60.398438 381.859375 59.148438 378.042969 60.515625 Z M 364.066406 59.390625 L 365.15625 58.523438 C 366.847656 57.171875 369.042969 57.21875 370.285156 58.777344 C 371.492188 60.289062 371.042969 62.527344 369.398438 63.839844 L 363.492188 68.554688 L 359.257812 63.253906 L 364.078125 59.402344 Z M 379.59375 74.394531 L 377.429688 76.121094 L 372.609375 79.972656 L 367.757812 73.894531 L 374.738281 68.320312 C 376.707031 66.746094 379.289062 66.882812 380.660156 68.597656 C 382.015625 70.320312 381.5625 72.824219 379.59375 74.394531 Z M 379.59375 74.394531 " fill-opacity="1" fill-rule="nonzero"/></g></g></g></g><g clip-path="url(#f7bdd89837)"><g clip-path="url(#c4d7cc3c4e)"><g clip-path="url(#d810d381e8)"><g clip-path="url(#2dd54f144b)"><path fill="#000000" d="M 711.863281 7.769531 C 745.472656 20.214844 762.609375 57.550781 750.175781 91.136719 C 738.910156 121.566406 700.394531 141.882812 666.8125 129.449219 C 633.226562 117.011719 616.054688 79.691406 628.5 46.082031 C 640.941406 12.472656 678.277344 -4.664062 711.863281 7.769531 Z M 711.863281 7.769531 " fill-opacity="1" fill-rule="nonzero"/></g></g></g></g><g clip-path="url(#5b74db24a7)"><g clip-path="url(#8c6b5d6ba7)"><g clip-path="url(#0d41a90b10)"><g clip-path="url(#b6946fe150)"><path fill="#ffffff" d="M 707.691406 73.691406 C 712.613281 72.9375 717.25 69.519531 719.125 64.453125 C 722.199219 56.140625 716.886719 47.382812 707.332031 43.847656 L 706.210938 43.429688 L 710.171875 32.730469 L 703.007812 30.078125 L 699.042969 40.777344 L 695.605469 39.503906 L 699.566406 28.804688 L 692.402344 26.148438 L 688.4375 36.851562 L 676.304688 32.359375 L 671.695312 30.652344 L 667.511719 41.949219 L 673.9375 44.328125 L 661.6875 77.410156 L 655.261719 75.03125 L 651.085938 86.304688 L 655.722656 88.023438 L 667.855469 92.515625 L 664.027344 102.859375 L 671.191406 105.511719 L 675.023438 95.167969 L 678.460938 96.441406 L 674.632812 106.785156 L 681.796875 109.4375 L 685.628906 99.09375 L 688.804688 100.269531 C 699.195312 104.117188 709.234375 100.691406 712.5 91.878906 C 714.894531 85.269531 712.863281 77.917969 707.691406 73.691406 Z M 697.394531 53.011719 L 699.542969 53.808594 C 702.886719 55.046875 704.6875 58.183594 703.546875 61.265625 C 702.441406 64.253906 698.898438 65.523438 695.652344 64.320312 L 683.972656 59.996094 L 687.855469 49.507812 L 697.382812 53.039062 Z M 689.417969 87.679688 L 685.144531 86.097656 L 675.613281 82.566406 L 680.0625 70.550781 L 693.867188 75.664062 C 697.761719 77.105469 699.765625 80.863281 698.511719 84.253906 C 697.230469 87.636719 693.3125 89.121094 689.417969 87.679688 Z M 689.417969 87.679688 " fill-opacity="1" fill-rule="nonzero"/></g></g></g></g><g clip-path="url(#b0a9216e20)"><g clip-path="url(#b4e82d343c)"><g clip-path="url(#7a88d5afff)"><g clip-path="url(#fcda782fff)"><path fill="#000000" d="M 906.570312 342.558594 C 920.765625 319.675781 950.828125 312.644531 973.695312 326.828125 C 994.417969 339.683594 1003.609375 371.085938 989.425781 393.953125 C 975.242188 416.824219 945.1875 423.878906 922.300781 409.683594 C 899.417969 395.488281 892.386719 365.429688 906.570312 342.558594 Z M 906.570312 342.558594 " fill-opacity="1" fill-rule="nonzero"/></g></g></g></g><g clip-path="url(#47452ee528)"><g clip-path="url(#96933a250b)"><g clip-path="url(#ff5d9cf798)"><g clip-path="url(#5a4412e632)"><path fill="#ffffff" d="M 954.488281 355.503906 C 954.671875 351.765625 952.847656 347.839844 949.398438 345.703125 C 943.738281 342.191406 936.492188 344.792969 932.457031 351.296875 L 931.984375 352.0625 L 924.699219 347.542969 L 921.671875 352.421875 L 928.957031 356.941406 L 927.503906 359.285156 L 920.21875 354.765625 L 917.191406 359.644531 L 924.476562 364.164062 L 919.351562 372.425781 L 917.40625 375.566406 L 925.097656 380.335938 L 927.8125 375.960938 L 950.339844 389.9375 L 947.625 394.3125 L 955.304688 399.074219 L 957.261719 395.917969 L 962.386719 387.65625 L 969.429688 392.023438 L 972.457031 387.144531 L 965.414062 382.773438 L 966.867188 380.433594 L 973.910156 384.800781 L 976.933594 379.921875 L 969.890625 375.554688 L 971.234375 373.390625 C 975.621094 366.316406 974.605469 358.40625 968.601562 354.683594 C 964.09375 351.933594 958.375 352.328125 954.488281 355.503906 Z M 937.71875 359.988281 L 938.628906 358.527344 C 940.039062 356.25 942.621094 355.394531 944.71875 356.695312 C 946.753906 357.957031 947.15625 360.753906 945.785156 362.964844 L 940.851562 370.917969 L 933.710938 366.488281 L 937.738281 360 Z M 962.054688 371.050781 L 960.246094 373.964844 L 956.222656 380.453125 L 948.039062 375.378906 L 953.871094 365.976562 C 955.515625 363.324219 958.582031 362.414062 960.894531 363.84375 C 963.191406 365.292969 963.699219 368.402344 962.054688 371.050781 Z M 962.054688 371.050781 " fill-opacity="1" fill-rule="nonzero"/></g></g></g></g><g clip-path="url(#6fbc10eb23)"><g clip-path="url(#0b690a41c2)"><g clip-path="url(#45f10a6594)"><g clip-path="url(#f5c2a3986f)"><path fill="#000000" d="M 884.789062 -32.9375 C 910.042969 -23.585938 922.921875 4.46875 913.578125 29.707031 C 905.113281 52.574219 876.171875 67.839844 850.933594 58.496094 C 825.699219 49.152344 812.792969 21.105469 822.144531 -4.148438 C 831.496094 -29.402344 859.550781 -42.28125 884.789062 -32.9375 Z M 884.789062 -32.9375 " fill-opacity="1" fill-rule="nonzero"/></g></g></g></g><g clip-path="url(#001d65a7fc)"><g clip-path="url(#005d33c4e1)"><g clip-path="url(#a5db0ceb25)"><g clip-path="url(#d28eda22eb)"><path fill="#ffffff" d="M 881.652344 16.601562 C 885.355469 16.03125 888.835938 13.464844 890.246094 9.65625 C 892.558594 3.410156 888.566406 -3.167969 881.386719 -5.828125 L 880.542969 -6.140625 L 883.519531 -14.179688 L 878.132812 -16.175781 L 875.15625 -8.132812 L 872.570312 -9.089844 L 875.550781 -17.132812 L 870.164062 -19.125 L 867.1875 -11.085938 L 858.070312 -14.460938 L 854.605469 -15.742188 L 851.460938 -7.253906 L 856.289062 -5.464844 L 847.085938 19.394531 L 842.257812 17.605469 L 839.121094 26.078125 L 842.601562 27.367188 L 851.71875 30.742188 L 848.84375 38.515625 L 854.226562 40.507812 L 857.105469 32.738281 L 859.6875 33.695312 L 856.8125 41.464844 L 862.195312 43.460938 L 865.074219 35.6875 L 867.460938 36.570312 C 875.269531 39.464844 882.816406 36.890625 885.265625 30.265625 C 887.066406 25.296875 885.539062 19.773438 881.652344 16.601562 Z M 873.914062 1.058594 L 875.53125 1.660156 C 878.042969 2.589844 879.394531 4.945312 878.539062 7.261719 C 877.707031 9.507812 875.046875 10.460938 872.605469 9.554688 L 863.828125 6.304688 L 866.746094 -1.574219 L 873.910156 1.078125 Z M 867.925781 27.109375 L 864.710938 25.921875 L 857.550781 23.269531 L 860.890625 14.238281 L 871.265625 18.082031 C 874.191406 19.164062 875.699219 21.988281 874.753906 24.535156 C 873.792969 27.078125 870.851562 28.191406 867.925781 27.109375 Z M 867.925781 27.109375 " fill-opacity="1" fill-rule="nonzero"/></g></g></g></g><g clip-path="url(#3e314e00fa)"><g clip-path="url(#517c1cccd2)"><g clip-path="url(#95231ea18c)"><g clip-path="url(#2bc7ab22c3)"><path fill="#000000" d="M 174.40625 -21.949219 C 204.644531 -37.433594 241.707031 -25.460938 257.179688 4.757812 C 271.203125 32.136719 260.695312 72.054688 230.476562 87.527344 C 200.257812 103.003906 163.191406 91.0625 147.703125 60.824219 C 132.21875 30.585938 144.191406 -6.472656 174.40625 -21.949219 Z M 174.40625 -21.949219 " fill-opacity="1" fill-rule="nonzero"/></g></g></g></g><g clip-path="url(#b4cfeaa7db)"><g clip-path="url(#3c688d0473)"><g clip-path="url(#94b4a22271)"><g clip-path="url(#eb3d89cb97)"><path fill="#ffffff" d="M 217.761719 23.238281 C 220.390625 19.3125 220.972656 13.886719 218.640625 9.328125 C 214.808594 1.851562 205.289062 -0.0546875 196.691406 4.347656 L 195.683594 4.863281 L 190.75 -4.761719 L 184.304688 -1.460938 L 189.234375 8.167969 L 186.140625 9.753906 L 181.207031 0.125 L 174.761719 3.425781 L 179.691406 13.054688 L 168.773438 18.644531 L 164.625 20.769531 L 169.832031 30.933594 L 175.613281 27.972656 L 190.859375 57.738281 L 185.078125 60.699219 L 190.273438 70.84375 L 194.441406 68.710938 L 205.359375 63.117188 L 210.125 72.425781 L 216.574219 69.121094 L 211.808594 59.816406 L 214.902344 58.230469 L 219.667969 67.535156 L 226.113281 64.234375 L 221.347656 54.929688 L 224.207031 53.464844 C 233.554688 48.675781 237.601562 39.46875 233.542969 31.539062 C 230.460938 25.628906 224.023438 22.332031 217.761719 23.238281 Z M 196.71875 17.164062 L 198.652344 16.175781 C 201.660156 14.632812 205.007812 15.390625 206.425781 18.164062 C 207.800781 20.847656 206.417969 24.132812 203.496094 25.632812 L 192.988281 31.015625 L 188.15625 21.578125 L 196.730469 17.1875 Z M 215.808594 44.960938 L 211.964844 46.929688 L 203.386719 51.324219 L 197.851562 40.511719 L 210.273438 34.152344 C 213.777344 32.355469 217.683594 33.367188 219.246094 36.417969 C 220.789062 39.480469 219.3125 43.167969 215.808594 44.960938 Z M 215.808594 44.960938 " fill-opacity="1" fill-rule="nonzero"/></g></g></g></g><g clip-path="url(#10d94cf91d)"><g clip-path="url(#16bcc2cc1e)"><g clip-path="url(#0a9b20f4e0)"><g clip-path="url(#8d1b36e6dd)"><path fill="#000000" d="M -18.113281 217.113281 C 1.246094 207.199219 24.972656 214.867188 34.878906 234.210938 C 43.859375 251.742188 37.128906 277.300781 17.78125 287.207031 C -1.5625 297.117188 -25.296875 289.46875 -35.210938 270.109375 C -45.128906 250.75 -37.460938 227.023438 -18.113281 217.113281 Z M -18.113281 217.113281 " fill-opacity="1" fill-rule="nonzero"/></g></g></g></g><g clip-path="url(#0a0bf7177b)"><g clip-path="url(#e6d5ed0830)"><g clip-path="url(#b6376bb3e5)"><g clip-path="url(#31c6787348)"><path fill="#ffffff" d="M 9.640625 246.042969 C 11.324219 243.53125 11.699219 240.058594 10.203125 237.140625 C 7.753906 232.351562 1.65625 231.132812 -3.847656 233.949219 L -4.496094 234.28125 L -7.652344 228.117188 L -11.78125 230.230469 L -8.621094 236.394531 L -10.605469 237.410156 L -13.761719 231.246094 L -17.890625 233.359375 L -14.730469 239.523438 L -21.722656 243.105469 L -24.378906 244.464844 L -21.042969 250.972656 L -17.34375 249.078125 L -7.582031 268.136719 L -11.285156 270.03125 L -7.957031 276.523438 L -5.289062 275.15625 L 1.703125 271.578125 L 4.753906 277.535156 L 8.882812 275.421875 L 5.828125 269.464844 L 7.8125 268.449219 L 10.863281 274.40625 L 14.992188 272.292969 L 11.9375 266.335938 L 13.769531 265.398438 C 19.753906 262.332031 22.34375 256.4375 19.746094 251.359375 C 17.773438 247.578125 13.652344 245.464844 9.640625 246.042969 Z M -3.832031 242.15625 L -2.59375 241.523438 C -0.664062 240.535156 1.476562 241.019531 2.382812 242.796875 C 3.265625 244.515625 2.378906 246.621094 0.507812 247.578125 L -6.21875 251.023438 L -9.3125 244.984375 L -3.824219 242.171875 Z M 8.394531 259.953125 L 5.929688 261.214844 L 0.441406 264.027344 L -3.105469 257.105469 L 4.847656 253.03125 C 7.089844 251.882812 9.59375 252.53125 10.59375 254.484375 C 11.582031 256.445312 10.636719 258.804688 8.394531 259.953125 Z M 8.394531 259.953125 " fill-opacity="1" fill-rule="nonzero"/></g></g></g></g><g clip-path="url(#2cb7b45baa)"><g clip-path="url(#b270ffef66)"><g clip-path="url(#c10feadf79)"><g clip-path="url(#1ab0895726)"><path fill="#000000" d="M 1101.382812 83.710938 C 1120.742188 73.792969 1144.46875 81.460938 1154.378906 100.808594 C 1163.355469 118.335938 1156.628906 143.894531 1137.28125 153.800781 C 1117.933594 163.710938 1094.203125 156.0625 1084.285156 136.703125 C 1074.371094 117.34375 1082.039062 93.617188 1101.382812 83.710938 Z M 1101.382812 83.710938 " fill-opacity="1" fill-rule="nonzero"/></g></g></g></g><g clip-path="url(#4813abefb2)"><g clip-path="url(#fa09abefe8)"><g clip-path="url(#3c538e7f06)"><g clip-path="url(#6de07ec806)"><path fill="#ffffff" d="M 1129.140625 112.636719 C 1130.824219 110.125 1131.195312 106.652344 1129.703125 103.734375 C 1127.25 98.945312 1121.15625 97.726562 1115.652344 100.546875 L 1115.003906 100.875 L 1111.847656 94.710938 L 1107.71875 96.824219 L 1110.875 102.992188 L 1108.894531 104.003906 L 1105.738281 97.839844 L 1101.609375 99.953125 L 1104.765625 106.121094 L 1097.777344 109.699219 L 1095.121094 111.058594 L 1098.453125 117.566406 L 1102.15625 115.671875 L 1111.917969 134.730469 L 1108.214844 136.625 L 1111.539062 143.121094 L 1114.210938 141.753906 L 1121.199219 138.171875 L 1124.25 144.128906 L 1128.378906 142.015625 L 1125.328125 136.058594 L 1127.308594 135.042969 L 1130.359375 141 L 1134.488281 138.886719 L 1131.4375 132.929688 L 1133.265625 131.992188 C 1139.253906 128.925781 1141.84375 123.03125 1139.242188 117.953125 C 1137.269531 114.171875 1133.152344 112.058594 1129.140625 112.636719 Z M 1115.667969 108.75 L 1116.90625 108.117188 C 1118.832031 107.132812 1120.972656 107.613281 1121.882812 109.390625 C 1122.765625 111.109375 1121.878906 113.214844 1120.007812 114.171875 L 1113.277344 117.617188 L 1110.183594 111.578125 L 1115.675781 108.765625 Z M 1127.890625 126.546875 L 1125.429688 127.808594 L 1119.9375 130.621094 L 1116.394531 123.699219 L 1124.347656 119.625 C 1126.589844 118.476562 1129.089844 119.125 1130.09375 121.078125 C 1131.078125 123.039062 1130.132812 125.398438 1127.890625 126.546875 Z M 1127.890625 126.546875 " fill-opacity="1" fill-rule="nonzero"/></g></g></g></g></svg>